/* XPM */
static char * guimup32_xpm[] = {
"32 32 491 2",
"  	c None",
". 	c #263E4F",
"+ 	c #263F4F",
"@ 	c #253D4D",
"# 	c #223848",
"$ 	c #2D4455",
"% 	c #344D5E",
"& 	c #365062",
"* 	c #355062",
"= 	c #2F4A5D",
"- 	c #294458",
"; 	c #264052",
"> 	c #233B4B",
", 	c #203745",
"' 	c #1E3342",
") 	c #1E3240",
"! 	c #1D303E",
"~ 	c #103139",
"{ 	c #2E4656",
"] 	c #3D5768",
"^ 	c #476172",
"/ 	c #435D6F",
"( 	c #3D586A",
"_ 	c #365163",
": 	c #294457",
"< 	c #253F50",
"[ 	c #223A49",
"} 	c #1F3443",
"| 	c #1D313F",
"1 	c #1C2F3D",
"2 	c #1B2E3B",
"3 	c #192B38",
"4 	c #173E47",
"5 	c #183E47",
"6 	c #385161",
"7 	c #4B6576",
"8 	c #476173",
"9 	c #445E70",
"0 	c #3F596C",
"a 	c #385365",
"b 	c #2F4A5E",
"c 	c #284355",
"d 	c #253E4F",
"e 	c #213847",
"f 	c #1E3341",
"g 	c #1C303E",
"h 	c #1C2F3B",
"i 	c #1A2D39",
"j 	c #192D39",
"k 	c #1A2E3C",
"l 	c #162D3C",
"m 	c #0E2F38",
"n 	c #1B4650",
"o 	c #183D46",
"p 	c #3D5667",
"q 	c #4E6879",
"r 	c #4C6677",
"s 	c #4A6476",
"t 	c #466072",
"u 	c #415B6D",
"v 	c #395465",
"w 	c #284255",
"x 	c #243D4D",
"y 	c #203645",
"z 	c #192C38",
"A 	c #192D3A",
"B 	c #172E3C",
"C 	c #122C39",
"D 	c #163C47",
"E 	c #1E4A55",
"F 	c #143941",
"G 	c #3A5365",
"H 	c #4D6778",
"I 	c #415C6E",
"J 	c #395366",
"K 	c #274254",
"L 	c #233C4C",
"M 	c #1E3442",
"N 	c #1B2F3D",
"O 	c #182D3B",
"P 	c #0F2733",
"Q 	c #1B3E48",
"R 	c #1E4C56",
"S 	c #1F4E59",
"T 	c #153843",
"U 	c #133446",
"V 	c #324B5C",
"W 	c #4B6577",
"X 	c #486274",
"Y 	c #425D6F",
"Z 	c #395466",
"` 	c #223949",
" .	c #1D3240",
"..	c #192F3D",
"+.	c #102632",
"@.	c #1F424C",
"#.	c #3D7483",
"$.	c #236879",
"%.	c #2F7180",
"&.	c #173D48",
"*.	c #133649",
"=.	c #193647",
"-.	c #18303E",
";.	c #273E4E",
">.	c #435E6F",
",.	c #466172",
"'.	c #496375",
").	c #445F70",
"!.	c #3B5568",
"~.	c #2C4759",
"{.	c #243E4F",
"].	c #203B4C",
"^.	c #172F3F",
"/.	c #103540",
"(.	c #6395A0",
"_.	c #4896A9",
":.	c #268398",
"<.	c #48A0B4",
"[.	c #204B57",
"}.	c #123547",
"|.	c #193546",
"1.	c #1C3443",
"2.	c #203646",
"3.	c #162833",
"4.	c #405B6D",
"5.	c #455F71",
"6.	c #304A5C",
"7.	c #223A4A",
"8.	c #1F3849",
"9.	c #1C3646",
"0.	c #0D303D",
"a.	c #52828E",
"b.	c #85C4D4",
"c.	c #218EA8",
"d.	c #39A5BE",
"e.	c #5DC4DB",
"f.	c #295968",
"g.	c #113346",
"h.	c #1B3343",
"i.	c #1E3443",
"j.	c #203747",
"k.	c #3A5567",
"l.	c #3C5769",
"m.	c #3E596B",
"n.	c #486273",
"o.	c #213A4A",
"p.	c #264254",
"q.	c #193949",
"r.	c #3B6D78",
"s.	c #97CDDB",
"t.	c #57B7CD",
"u.	c #1B9CBA",
"v.	c #4EC3DF",
"w.	c #6FDAF2",
"x.	c #2A5D6C",
"y.	c #103244",
"z.	c #173344",
"A.	c #1B3342",
"B.	c #1E3343",
"C.	c #203544",
"D.	c #213848",
"E.	c #243C4D",
"F.	c #162732",
"G.	c #273F50",
"H.	c #334E60",
"I.	c #324D60",
"J.	c #334E61",
"K.	c #375264",
"L.	c #3D576A",
"M.	c #243D4E",
"N.	c #1F3B4C",
"O.	c #1B3948",
"P.	c #2F5B69",
"Q.	c #87BFCC",
"R.	c #8AD5E7",
"S.	c #2CB1D1",
"T.	c #29B8DB",
"U.	c #65DEF5",
"V.	c #7AEAFB",
"W.	c #285F6F",
"X.	c #14384C",
"Y.	c #173445",
"Z.	c #1A3140",
"`.	c #1D3241",
" +	c #213746",
".+	c #233B4C",
"++	c #274153",
"@+	c #2A4558",
"#+	c #2B4659",
"$+	c #345062",
"%+	c #274355",
"&+	c #142E3E",
"*+	c #1D4655",
"=+	c #7CB1BE",
"-+	c #9CDBEB",
";+	c #60CBE4",
">+	c #1EBEE5",
",+	c #37D2F7",
"'+	c #7BF3FF",
")+	c #81F6FF",
"!+	c #2D7083",
"~+	c #20465B",
"{+	c #193749",
"]+	c #1D3545",
"^+	c #264053",
"/+	c #274458",
"(+	c #1E3B4C",
"_+	c #113643",
":+	c #6A9EA9",
"<+	c #A3DFED",
"[+	c #7CD5EB",
"}+	c #3DC9EB",
"|+	c #1ECBF6",
"1+	c #26D7FE",
"2+	c #38DAFE",
"3+	c #57DFFA",
"4+	c #36859B",
"5+	c #486B7D",
"6+	c #3D5F72",
"7+	c #213F51",
"8+	c #1D3343",
"9+	c #1E3340",
"0+	c #203847",
"a+	c #253F51",
"b+	c #101F28",
"c+	c #1B303E",
"d+	c #1F3747",
"e+	c #1B3647",
"f+	c #0C2935",
"g+	c #557A82",
"h+	c #9ED1DC",
"i+	c #85D2E4",
"j+	c #5CCDE8",
"k+	c #27C7EE",
"l+	c #23D4FD",
"m+	c #29DFFF",
"n+	c #2ADFFE",
"o+	c #28D5FE",
"p+	c #25C2E9",
"q+	c #238098",
"r+	c #336D7E",
"s+	c #305464",
"t+	c #224050",
"u+	c #193141",
"v+	c #1C3546",
"w+	c #1E3746",
"x+	c #203949",
"y+	c #274253",
"z+	c #162631",
"A+	c #1B303D",
"B+	c #1D3140",
"C+	c #193540",
"D+	c #5D7D84",
"E+	c #ABC5C9",
"F+	c #94BCC5",
"G+	c #69B2C3",
"H+	c #4FB5CE",
"I+	c #23B0D2",
"J+	c #24C2E8",
"K+	c #28CFF8",
"L+	c #29D9FF",
"M+	c #2ADDFE",
"N+	c #2AD9FF",
"O+	c #28CDF7",
"P+	c #27B9DE",
"Q+	c #23A1C1",
"R+	c #218AA3",
"S+	c #1E6E82",
"T+	c #1D5563",
"U+	c #173B45",
"V+	c #183843",
"W+	c #163341",
"X+	c #1A3646",
"Y+	c #203C4E",
"Z+	c #172935",
"`+	c #182E3A",
" @	c #18323E",
".@	c #13323D",
"+@	c #20424C",
"@@	c #2C525D",
"#@	c #306D7C",
"$@	c #2A8195",
"%@	c #228EA9",
"&@	c #22A2C2",
"*@	c #26B9DD",
"=@	c #27CCF6",
"-@	c #29D8FF",
";@	c #2ADCFE",
">@	c #28CEF7",
",@	c #27C1E6",
"'@	c #25B1D3",
")@	c #229CBA",
"!@	c #1F839C",
"~@	c #1B6070",
"{@	c #1A444E",
"]@	c #1B4752",
"^@	c #173A47",
"/@	c #244053",
"(@	c #1B2F3C",
"_@	c #1A2C38",
":@	c #172D3B",
"<@	c #162F3E",
"[@	c #143242",
"}@	c #133243",
"|@	c #143547",
"1@	c #173849",
"2@	c #204D5D",
"3@	c #226678",
"4@	c #1E8BA8",
"5@	c #22BEE5",
"6@	c #22D1FD",
"7@	c #27DCFF",
"8@	c #27CEF8",
"9@	c #25BBE1",
"0@	c #22A2C3",
"a@	c #20859E",
"b@	c #1D5C6B",
"c@	c #133641",
"d@	c #153A4C",
"e@	c #1F4358",
"f@	c #234155",
"g@	c #264255",
"h@	c #1B2D39",
"i@	c #192B37",
"j@	c #182B37",
"k@	c #172B38",
"l@	c #162C39",
"m@	c #1C3747",
"n@	c #1F3D50",
"o@	c #3B5D70",
"p@	c #55778A",
"q@	c #386475",
"r@	c #7EDCEF",
"s@	c #7CECFF",
"t@	c #40DEFF",
"u@	c #25D2FC",
"v@	c #23C7EF",
"w@	c #27B7DC",
"x@	c #31AAC8",
"y@	c #2F92A9",
"z@	c #1B5564",
"A@	c #153849",
"B@	c #1F465C",
"C@	c #24465B",
"D@	c #274559",
"E@	c #294658",
"F@	c #2E495C",
"G@	c #0F1D25",
"H@	c #182A36",
"I@	c #1C303D",
"J@	c #1F3746",
"K@	c #2A495C",
"L@	c #234B5B",
"M@	c #74C0D2",
"N@	c #85E3F9",
"O@	c #47D5F8",
"P@	c #28C8F0",
"Q@	c #33C4E7",
"R@	c #4CC6E4",
"S@	c #57C3DB",
"T@	c #377F91",
"U@	c #153C4C",
"V@	c #173A4F",
"W@	c #2B4E62",
"X@	c #2D4C60",
"Y@	c #2F4C5E",
"Z@	c #2D475A",
"`@	c #0F2D3B",
" #	c #75AEBB",
".#	c #84D3E6",
"+#	c #3CBEDD",
"@#	c #33C1E3",
"##	c #69E2F8",
"$#	c #79E9FF",
"%#	c #56AFC3",
"&#	c #215161",
"*#	c #13374B",
"=#	c #17374A",
"-#	c #365366",
";#	c #365264",
">#	c #375164",
",#	c #334F61",
"'#	c #182935",
")#	c #182C3A",
"!#	c #0C2833",
"~#	c #76A5B1",
"{#	c #81C9D9",
"]#	c #2EA5C4",
"^#	c #44C0DD",
"/#	c #79EBFF",
"(#	c #67CBDB",
"_#	c #296171",
":#	c #123649",
"<#	c #17384B",
"[#	c #183445",
"}#	c #2E4A5C",
"|#	c #192B36",
"1#	c #182A37",
"2#	c #0C2631",
"3#	c #79A5AF",
"4#	c #72B9CA",
"5#	c #2697B4",
"6#	c #53C6E1",
"7#	c #68D1E6",
"8#	c #327180",
"9#	c #103345",
"0#	c #153649",
"a#	c #173443",
"b#	c #1F394A",
"c#	c #3D596B",
"d#	c #314B5C",
"e#	c #172934",
"f#	c #1A2B37",
"g#	c #09222E",
"h#	c #7DA3AB",
"i#	c #539BAB",
"j#	c #278DA5",
"k#	c #53B8CF",
"l#	c #3B8292",
"m#	c #143848",
"n#	c #1A3A4C",
"o#	c #213E50",
"p#	c #2D485A",
"q#	c #385465",
"r#	c #3C5669",
"s#	c #192C3A",
"t#	c #0C2431",
"u#	c #6F8F97",
"v#	c #327383",
"w#	c #277B8E",
"x#	c #377E8E",
"y#	c #183E4B",
"z#	c #113447",
"A#	c #193A4C",
"B#	c #1E3C4E",
"C#	c #234153",
"D#	c #324C5F",
"E#	c #294051",
"F#	c #172C39",
"G#	c #112A36",
"H#	c #44676F",
"I#	c #1F4F5B",
"J#	c #1F5360",
"K#	c #173E4C",
"L#	c #123142",
"M#	c #17384A",
"N#	c #1A3647",
"O#	c #2D485B",
"P#	c #2E4759",
"Q#	c #09232E",
"R#	c #224B55",
"S#	c #18434D",
"T#	c #153943",
"U#	c #0F3040",
"V#	c #153749",
"W#	c #1E3645",
"X#	c #243E50",
"Y#	c #2C475A",
"Z#	c #314C5F",
"`#	c #344F61",
" $	c #375263",
".$	c #2D4757",
"+$	c #1C4853",
"@$	c #153A44",
"#$	c #0D2D3C",
"$$	c #173345",
"%$	c #1A3242",
"&$	c #1C3241",
"*$	c #213747",
"=$	c #253E50",
"-$	c #274255",
";$	c #263E4D",
">$	c #183F49",
",$	c #0E2634",
"'$	c #213949",
")$	c #243C4C",
"!$	c #263F50",
"~$	c #304B5E",
"{$	c #2C4658",
"]$	c #182835",
"^$	c #15353F",
"/$	c #13212C",
"($	c #294558",
"_$	c #2C475B",
":$	c #263D4D",
"<$	c #172834",
"[$	c #0E1A23",
"}$	c #14232E",
"|$	c #162733",
"1$	c #152632",
"2$	c #0F1C24",
"                                                                ",
"                            . + @ #                             ",
"                    $ % & * = - ; > , ' ) !               ~     ",
"                { ] ^ / ( _ = : < [ } | 1 2 2 3       4 5       ",
"              6 7 7 8 9 0 a b c d e f g h i j k l m n o         ",
"            p q r 7 s t u v = w x y | 2 z A B C D E F           ",
"          G q q H H r 8 I J = K L M N j O P Q R S T U           ",
"        V W 7 H q q r X Y Z = ; `  ...+.@.#.$.%.&.*.=.-.        ",
"      ;.>.,.'.W r H r '.).!.~.{.].^./.(._.:.<.[.}.|.1.2.3.      ",
"      V 4./ 5.8 s H r X 6.7.8.9.0.a.b.c.d.e.f.g.|.h.i.e j.      ",
"    ` Z k.l.m./ n.s ,.d o.p.q.r.s.t.u.v.w.x.y.z.A.B.C.D.E.F.    ",
"    G.H.I.J.K.L.4.u M.N.O.P.Q.R.S.T.U.V.W.X.Y.Z.`.C. +e .+i.    ",
"    ++@+@+#+= H.$+%+&+*+=+-+;+>+,+'+)+!+~+{+]+g f C.e e .+L     ",
"    < {.M.{.^+/+(+_+:+<+[+}+|+1+2+3+4+5+6+7+8+`.9+} 0+` L a+b+  ",
"  c+[ j.C.d+e+f+g+h+i+j+k+l+m+n+o+p+q+r+s+t+u+e+v+w+x+7.L y+z+  ",
"  A+} B+c+C+D+E+F+G+H+I+J+K+L+M+N+O+P+Q+R+S+T+U+V+W+X+Y+{.c Z+  ",
"  g | 2 `+ @.@+@@@#@$@%@&@*@=@-@;@-@>@,@'@)@!@~@{@]@^@(+/@@+Z+  ",
"  (@h _@z :@<@[@}@|@1@2@3@4@5@6@7@m+L+8@9@0@a@b@c@d@e@f@g@#+F.  ",
"    h@i@i@j@j@k@l@m@n@o@p@q@r@s@t@u@v@w@x@y@z@A@B@C@D@E@@+F@G@  ",
"    _@_@_@i@i@i@H@I@J@K@L@M@N@O@P@Q@R@S@T@U@V@W@X@Y@b = = Z@    ",
"    3 i@_@_@_@i@i@j@]+`@ #.#+#@###$#%#&#*#=#X@-#;#>#* ,#H.G.    ",
"    '#_@_@_@i@i@j@)#!#~#{#]#^#/#(#_#:#<#[#}#( !.!.Z a _ K.|#    ",
"      i@i@i@i@1#)#2#3#4#5#6#7#8#9#0#a#b#,#c#( L.l.k.a a d#      ",
"      e#f#i@1#)#g#h#i#j#k#l#m#X.n#o#p#q#k.r#r#L.r#k.a Z _@      ",
"        Z+i@s#t#u#v#w#x#y#z#A#B#C##+D#* a k.r#!.k.Z Z E#        ",
"          F#G#H#I#J#K#L#M#N#b#M.K O#I.* a a a Z a a P#          ",
"          Q#R#S#T#U#V#z.h.W#o.X#c Y#Z#`#* _ K._  $.$            ",
"          +$@$#$V#$$%$&$' *$.+=$-$#+= Z#,#,#`#* ;$              ",
"        >$      ,$..' i.y '$)$!$K @+F@~$I.J.{$]$                ",
"      ^$            /$(@j.M.a+K ($_$= ~.:$<$                    ",
"                          [$}$|$e#1$2$                          ",
"                                                                "};
