/* XPM */
static char * quimup16_xpm[] = {
"16 16 159 2",
"  	c None",
". 	c #3C5566",
"+ 	c #375264",
"@ 	c #2C475A",
"# 	c #243D4D",
"$ 	c #1E3342",
"% 	c #1C2F3D",
"& 	c #3E5768",
"* 	c #4C6677",
"= 	c #466072",
"- 	c #3C5769",
"; 	c #2B4559",
"> 	c #223A49",
", 	c #1C303E",
"' 	c #1A2D39",
") 	c #162B38",
"! 	c #163945",
"~ 	c #183F48",
"{ 	c #3A5365",
"] 	c #4E6879",
"^ 	c #4D6778",
"/ 	c #4A6475",
"( 	c #3D586A",
"_ 	c #2A4558",
": 	c #203645",
"< 	c #142734",
"[ 	c #213F4C",
"} 	c #225B68",
"| 	c #163C49",
"1 	c #143142",
"2 	c #445F71",
"3 	c #486274",
"4 	c #4C6678",
"5 	c #344D5F",
"6 	c #223B4C",
"7 	c #1D3D4B",
"8 	c #4C8C9B",
"9 	c #41A8BF",
"0 	c #295D6D",
"a 	c #173345",
"b 	c #1F3545",
"c 	c #2E4859",
"d 	c #365164",
"e 	c #3D576A",
"f 	c #476173",
"g 	c #2A4455",
"h 	c #1A3847",
"i 	c #61919E",
"j 	c #52C0DC",
"k 	c #53D1EA",
"l 	c #346F82",
"m 	c #143040",
"n 	c #1D3342",
"o 	c #203646",
"p 	c #264153",
"q 	c #2D485B",
"r 	c #173546",
"s 	c #507A87",
"t 	c #83D6EA",
"u 	c #25C7EE",
"v 	c #58E7FF",
"w 	c #4A90A1",
"x 	c #254558",
"y 	c #1D3140",
"z 	c #1E3341",
"A 	c #203847",
"B 	c #243D4E",
"C 	c #1A313F",
"D 	c #516D76",
"E 	c #8BBDC7",
"F 	c #54C4DF",
"G 	c #20CCF6",
"H 	c #2ADFFF",
"I 	c #25CFF9",
"J 	c #268EA9",
"K 	c #235F72",
"L 	c #193947",
"M 	c #193443",
"N 	c #1F394A",
"O 	c #264052",
"P 	c #1B2E3B",
"Q 	c #182E3A",
"R 	c #0F2E3B",
"S 	c #1B4353",
"T 	c #1E6174",
"U 	c #1F91AD",
"V 	c #1ECBF7",
"W 	c #28DDFF",
"X 	c #28D1F9",
"Y 	c #22AED1",
"Z 	c #1E778C",
"` 	c #163C48",
" .	c #1D3D4F",
"..	c #284458",
"+.	c #1A2C37",
"@.	c #182B37",
"#.	c #182A36",
"$.	c #192E3C",
"%.	c #2A485A",
"&.	c #457081",
"*.	c #80EAFF",
"=.	c #28CBF3",
"-.	c #3EC7E8",
";.	c #2C7E93",
">.	c #193F50",
",.	c #284A5F",
"'.	c #2B475A",
").	c #2E495C",
"!.	c #192A37",
"~.	c #1A2C38",
"{.	c #192B37",
"].	c #192B38",
"^.	c #22404D",
"/.	c #74C5D8",
"(.	c #45CBE9",
"_.	c #67C9DA",
":.	c #245466",
"<.	c #173547",
"[.	c #395467",
"}.	c #385365",
"|.	c #355062",
"1.	c #2C4555",
"2.	c #253E49",
"3.	c #60ABBC",
"4.	c #42AEC7",
"5.	c #2F687A",
"6.	c #122F41",
"7.	c #264152",
"8.	c #3B5769",
"9.	c #3B5668",
"0.	c #1A2B36",
"a.	c #172A36",
"b.	c #1C3540",
"c.	c #3C707C",
"d.	c #215A6A",
"e.	c #112F3F",
"f.	c #1F3B4C",
"g.	c #284457",
"h.	c #334E61",
"i.	c #3A5467",
"j.	c #395466",
"k.	c #2A4151",
"l.	c #163D48",
"m.	c #133343",
"n.	c #183344",
"o.	c #1E3443",
"p.	c #233C4D",
"q.	c #294457",
"r.	c #314C5F",
"s.	c #344F61",
"t.	c #365264",
"u.	c #28404E",
"v.	c #1B2E3C",
"w.	c #223A4A",
"x.	c #264051",
"y.	c #2A4559",
"z.	c #2F4B5E",
"A.	c #2A4253",
"B.	c #182733",
"                                ",
"          . + @ # $ %           ",
"      & * = - ; > , ' ) ! ~     ",
"    { ] ^ / ( _ : < [ } | 1     ",
"    2 3 * 4 5 6 7 8 9 0 a b     ",
"  c d e f g h i j k l m n o b   ",
"  p p q r s t u v w x y z A B   ",
"  b C D E F G H I J K L M N O   ",
"  P Q R S T U V W X Y Z `  ...  ",
"  +.@.#.$.%.&.*.=.-.;.>.,.'.).  ",
"  !.~.{.].^./.(._.:.<.[.}.|.1.  ",
"    {.].2.3.4.5.6.7.8.- 9.[.0.  ",
"    a.b.c.d.e.f.g.h.}.i.j.k.    ",
"      l.m.n.o.p.q.r.s.t.u.      ",
"          v.w.x.y.z.A.B.        ",
"                                "};
